<svg xmlns="http://www.w3.org/2000/svg">
  <symbol id="blocks" viewBox="0 0 68 67">
    <path d="m67 36.464-15.458-8.84c-.001-2.76-.004-5.445-.008-8.12-.003-2.898-.007-5.797-.007-8.802v-.063a1.29 1.29 0 0 0-.993-1.256L34.419.171a1.289 1.289 0 0 0-1.278-.003L16.904 9.366a1.297 1.297 0 0 0-.676 1.13v.004c0 3.138.009 6.038.018 8.94.006 2.663.014 5.335.015 8.181L.677 36.448a1.273 1.273 0 0 0-.36.286c-.197.225-.315.52-.317.842v18.002c0 .465.25.894.655 1.123l16.492 9.34a1.29 1.29 0 0 0 1.312 0l15.717-8.877 15.67 8.876a1.289 1.289 0 0 0 1.312 0l16.186-9.142A1.29 1.29 0 0 0 68 55.776V37.718a1.296 1.296 0 0 0-1-1.254ZM48.954 19.506c.003 2.68.007 5.36.008 8.126L35.32 35.6V20.604l13.626-7.695c0 2.23.003 4.414.006 6.597ZM33.776 2.775l13.85 7.918L34.03 18.37l-13.893-7.868 13.64-7.727Zm-1.038 17.829V35.57l-13.895-7.944c-.001-2.855-.01-5.523-.017-8.193-.006-2.204-.012-4.408-.015-6.717l13.927 7.888ZM16.511 62.717l-13.93-7.89V39.797l13.93 7.888v15.033Zm1.292-17.266L3.908 37.583l13.64-7.725L31.354 37.8l-13.55 7.651Zm1.29 2.235L32.7 40.002v15.033L19.093 62.72V47.686Zm30.115 15.03-13.91-7.878V39.624l13.91 8.053v15.04Zm1.3-17.268-13.49-7.81 13.241-7.774 13.835 7.91-13.587 7.674Zm14.907 9.577L51.791 62.72V47.686l13.624-7.693v15.032Z"/>
  </symbol>
  <symbol id="goal" viewBox="0 0 66 62">
    <path d="M65.629 11.477 61.97 6.81l3.771-4.907A1.12 1.12 0 0 0 65.834.65C65.607.251 65.155 0 64.663 0H50.542c-1.443 0-2.618 1.14-2.618 2.539v.493c0 .017-.005.031-.005.047v18.468h-4.074c-3.538 0-6.414 2.785-6.414 6.208v5.382a7.717 7.717 0 0 0-5.293-2.084c-4.201 0-7.619 3.315-7.619 7.388v4.751a7.572 7.572 0 0 0-5.012-1.885c-4.123 0-7.476 3.252-7.476 7.25v3.03a6.939 6.939 0 0 0-4.2-1.407h-.99C3.067 50.18 0 53.15 0 56.804v3.988C0 61.46.59 62 1.32 62H13.35l.018-.002h12.298c.036 0 .07-.007.104-.01.024.002.046.007.07.007h12.6c.045 0 .09-.008.133-.012.058.007.116.016.177.016h23.07c.729 0 1.32-.54 1.32-1.208V27.755c0-3.422-2.877-6.208-6.413-6.208H50.56v-8.022H64.68c.73 0 1.32-.54 1.32-1.208 0-.326-.14-.622-.371-.84ZM2.639 56.805a4.21 4.21 0 0 1 4.201-4.209h.992c2.315 0 4.199 1.888 4.199 4.209v2.78H2.638v-2.78h.001Zm21.708 2.779H14.67V48.558a4.84 4.84 0 0 1 4.837-4.835 4.841 4.841 0 0 1 4.839 4.833v11.028Zm12.774-.004h-9.96V38.441a4.981 4.981 0 0 1 9.96 0v21.14ZM60.5 27.756v31.828h-20.43V27.756c0-2.09 1.693-3.792 3.775-3.792h5.053c.11.026.222.046.34.046.12 0 .232-.019.341-.046h7.148c2.08 0 3.773 1.701 3.773 3.792ZM50.566 11.11V2.54c0-.071.027-.116.001-.123h11.556l-2.59 3.37c-.486.636-.677 1.223-.023 2.03l2.585 3.295h-11.53Z"/>
  </symbol>
  <symbol id="hand" viewBox="0 0 72 72">
    <path d="M71.287 51.01c-.053-.046-.117-.1-.19-.17-4.033-3.834-8.195-5.308-12.372-4.376a5.134 5.134 0 0 0-1.783.741l-14.504 9.157c-.424-3.915-3.305-7.963-6.31-9.21l-18.387-4.924-.226-.065c-.686-.203-1.332-.32-2.31.295L.83 51.535c-.196.121-.654.406-.793 1.017-.14.61.15 1.057.311 1.304L9.851 68.95c.094.153.382.617 1.011.754.627.136 1.093-.167 1.257-.275a304.63 304.63 0 0 0 1.943-1.228c4.308.358 8.971 1.126 13.482 1.869 4.344.715 8.835 1.455 13.078 1.843l1.008.084.11.003c.336 0 .617-.083.93-.277l28.295-17.866c.34-.213.97-.612 1.03-1.411.059-.775-.46-1.221-.708-1.436ZM2.334 53.945l-.798-1.177.905 1.097a.895.895 0 0 1-.107.08ZM41.43 69.146l-.555-.046c-4.123-.376-8.561-1.107-12.853-1.814-4.635-.765-9.427-1.554-13.906-1.915a3.22 3.22 0 0 0-.26-.011c-.567 0-.895.175-1.265.409-.322.205-.644.41-.968.614L3.377 53.287 16.7 44.874l18.383 4.914c2.224.989 4.51 4.644 4.518 7.563l-17.558-3.962c-.777-.176-1.55.298-1.73 1.058-.18.76.305 1.519 1.081 1.694l19.078 4.305c.398.092.799.014 1.119-.19L58.5 49.58c.33-.208.508-.283.861-.362 2.962-.66 5.897.306 8.953 2.951L41.43 69.146ZM27.232 38.87c.397 0 .791-.17 1.065-.499 4.15-4.977 11.34-7.949 19.234-7.949 7.9 0 15.091 2.972 19.236 7.948a1.384 1.384 0 0 0 2.127-1.77c-3.28-3.937-8.206-6.753-13.868-8.082 4.694-2.587 7.884-7.587 7.884-13.322C62.91 6.816 56.105 0 47.74 0c-8.367 0-15.175 6.817-15.175 15.196 0 5.689 3.143 10.65 7.777 13.255-5.788 1.298-10.833 4.142-14.174 8.15a1.383 1.383 0 0 0 1.064 2.268Zm8.103-23.674c0-6.854 5.566-12.43 12.406-12.43 6.839 0 12.401 5.576 12.401 12.43s-5.563 12.43-12.4 12.43c-6.841 0-12.407-5.576-12.407-12.43Z"/>
  </symbol>
  <symbol id="hat" viewBox="0 0 74 74">
    <path d="M37.006 45.229c-.73 0-1.279-.326-2.109-.82l-4.786-2.834L1.748 24.779c-1.063-.63-1.765-1.044-1.748-2 .017-.924.74-1.318 1.378-1.665.19-.104.422-.23.69-.39 5.421-3.23 10.913-6.588 16.224-9.835C23.875 7.475 29.647 3.945 35.358.553c.49-.291.978-.553 1.561-.553.602 0 1.02.26 1.465.534l.305.187c5.6 3.327 11.291 6.788 16.796 10.135 5.628 3.423 11.448 6.963 17.17 10.359l.23.134c.472.276 1.12.653 1.115 1.51-.004.853-.657 1.226-1.09 1.471l-.284.164a9610.9 9610.9 0 0 0-17.08 10.153 9460.919 9460.919 0 0 1-16.28 9.678c-.974.58-1.521.904-2.26.904ZM3.731 22.846l32.534 19.266c.287.17.584.347.743.421.173-.078.503-.275.826-.465 5.508-3.265 10.925-6.49 16.342-9.716 5.323-3.17 10.644-6.338 15.99-9.506-5.369-3.198-10.805-6.503-16.072-9.707-5.498-3.344-11.184-6.8-16.773-10.122l-.347-.211-.083-.053a9.28 9.28 0 0 0-.165.097c-5.697 3.383-11.461 6.909-17.037 10.318-5.222 3.194-10.619 6.495-15.958 9.678Z"/>
    <path d="M36.993 62.023a1.32 1.32 0 0 1-.713-.207L8.527 44.928V28.713a1.337 1.337 0 0 1 2.675 0v14.714l24.455 14.881V45.326a1.337 1.337 0 0 1 2.674 0v12.97l24.467-14.89V28.694a1.337 1.337 0 0 1 2.675 0v16.215L37.826 61.733a1.327 1.327 0 0 1-.833.29ZM60.684 73.938H48.223v-12.96c0-3.157 2.796-5.727 6.23-5.727 3.436 0 6.23 2.569 6.23 5.728v12.96h.001Zm-9.787-2.672h7.112V60.979c0-1.685-1.595-3.056-3.554-3.056-1.96 0-3.557 1.371-3.557 3.056v10.287Z"/>
    <path d="M54.336 57.038a1.337 1.337 0 0 1-1.338-1.336v-21.23l-17.35-10.666a1.335 1.335 0 0 1-.437-1.837 1.337 1.337 0 0 1 1.839-.438L55.673 32.98v22.723c0 .737-.598 1.335-1.337 1.335Z"/>
  </symbol>
  <symbol id="profit" viewBox="0 0 95 59">
    <path d="m2 57 32.811-32.323a1 1 0 0 1 1.389-.014l16.305 15.405a1 1 0 0 0 1.371.003L71 24M64.063 17.224l18.174-5.477-4.344 18.478-13.83-13.001Z"/>
  </symbol>
  <symbol id="shield" viewBox="0 0 54 69">
    <path d="M53.444 9.262c-.536-.526-1.237-.526-1.613-.526l-.738.008-.356-.004C43.814 8.586 36.478 5.939 28.935.872l-.267-.18C28.1.305 27.652 0 27.003 0c-.648 0-1.087.3-1.644.681l-.3.204C17.388 6.03 9.935 8.676 2.906 8.745l-.401.001c-.817.002-1.464.004-2 .543-.528.53-.514 1.172-.5 1.794.002.14.006.303.006.49v30.623c0 1.762.089 2.708.934 4.362C6.083 56.59 14.577 64.142 26.188 69h1.078c11.865-4.967 20.482-12.397 25.61-22.087.791-1.498 1.124-2.41 1.124-4.181V11.399c.002-.92.003-1.586-.556-2.137Zm-2.19 33.471c0 1.226-.173 1.729-.814 2.942-4.749 8.973-12.725 15.909-23.712 20.622C16.007 61.689 8.159 54.644 3.4 45.35c-.612-1.196-.643-1.743-.643-3.154V11.438l.177-.001c7.582-.074 15.547-2.877 23.676-8.33l.32-.217.076-.053.097.066.281.19c7.99 5.366 15.826 8.17 23.29 8.338.15.003.29.004.419.004l.162-.002v31.3h-.001Z"/>
  </symbol>
  <symbol id="cover-arrow" viewBox="0 0 1104 448">
    <path fill="#003264" fill-rule="evenodd" d="M906.612 0 1104 224 906.612 448H-52V0h958.612Z" clip-rule="evenodd"/>
  </symbol>
</svg>