<svg xmlns="http://www.w3.org/2000/svg">
  <symbol id="colored" viewBox="0 0 115 25">
    <path fill="#7D7D7D" d="M24.922 9.842c-1.259 0-2.266.935-2.266 2.166 0 1.23 1.007 2.165 2.266 2.165 1.259 0 2.266-.935 2.266-2.165a2.29 2.29 0 0 0-2.266-2.166ZM52.063 7.185c-.756-2.904-2.568-4.921-5.388-6.053C45.467.64 44.158.492 42.9.442c-1.964-.048-3.978-.048-5.941 0-.403 0-.403 0-.403.394v18.209c0 .099.05.099.1.099h4.33c1.26 0 2.87-.05 3.374-.099 1.31-.148 2.568-.492 3.675-1.181 2.87-1.722 4.28-4.33 4.482-7.579 0-1.033-.151-2.067-.453-3.1Zm-4.935 6.053c-.856 1.181-2.064 1.92-3.524 2.116-.353.05-1.863.05-2.97.05V4.38c0-.295 0-.295.301-.295.403 0 .806.049 1.209.049.604.049 1.208.049 1.812.197 2.669.54 4.129 2.559 4.33 4.822.151 1.575-.252 2.904-1.158 4.085ZM12.537 15.404H9.92c-.302 0-.654 0-.956-.05-2.92-.492-4.633-2.706-4.834-5.02-.1-1.574.302-2.952 1.36-4.133 1.006-1.132 2.315-1.723 3.876-1.87.655-.05 1.36-.05 2.014-.148 1.158-.147 2.014-.738 2.468-1.771.251-.542.402-1.182.553-1.723.05-.148 0-.197-.15-.197H9.617a9.17 9.17 0 0 0-2.972.492c-2.416.788-4.28 2.166-5.488 4.43C.604 6.495.202 7.627.051 8.808c-.101.886-.101 1.821.1 2.707.453 2.116 1.46 3.937 3.122 5.364 1.813 1.526 3.927 2.264 6.294 2.362.956.05 1.913.05 2.87.05h.1c1.058 0 1.964-.886 1.964-1.92 0-1.132-.856-1.968-1.964-1.968Z"/>
    <path fill="#7D7D7D" d="M33.029 7.086c0-.688-.1-1.377-.252-2.066-.504-2.018-1.662-3.495-3.575-4.331-.856-.394-1.762-.541-2.719-.59h-3.172a6.43 6.43 0 0 0-2.719.59c-1.913.886-3.121 2.362-3.575 4.33-.15.69-.251 1.379-.251 2.067v11.91c0 .098.05.197.15.197H20.693c.102 0 .152-.05.152-.148V6.447c0-1.477 1.259-2.707 2.77-2.707h2.466c.705 0 1.36.246 1.813.689.05 0 .05.05.1.05l.152.147c.05.05.05.098.1.147.353.443.605 1.034.605 1.674v12.598c0 .099.05.197.15.197h3.777c.151 0 .151-.05.151-.197v-.148c.1-3.936.1-7.873.1-11.81Z"/>
    <path fill="#464646" d="M66.612 7.136a5.387 5.387 0 0 0-1.662-.886c-2.618-.935-5.035-.59-7.15 1.132-1.863 1.525-2.618 3.543-2.366 5.905.201 2.067 1.158 3.691 2.87 4.872 1.56 1.083 3.273 1.428 5.135 1.181 1.763-.245 3.273-.984 4.482-2.263.201-.246.201-.197 0-.443-.806-.984-2.266-1.378-3.475-.984-.201.049-.402.147-.654.196-1.561.493-2.87.099-4.028-1.033-.05-.05-.151-.148-.151-.295.05 0 .1 0 .1-.05 2.971-.688 5.992-1.328 8.963-2.017.302-.05.302-.05.302-.394 0-.541-.05-1.033-.201-1.575-.302-1.328-.957-2.51-2.165-3.346Zm-1.36 4.035c-1.208.296-2.366.542-3.575.837-.856.197-1.762.394-2.618.59-.05 0-.1.05-.151 0-.05-.344 0-.64.1-.984.303-1.181 1.008-2.067 2.216-2.411.655-.197 1.41-.246 2.064-.099 1.058.197 1.712.886 2.065 1.87.15.148.05.148-.101.197ZM114.998 12.303c0-.64 0-1.28-.051-1.92-.151-1.82-1.057-3.198-2.769-4.035-1.259-.64-2.669-.738-4.028-.492-2.417.443-4.179 2.313-4.229 4.725a51.947 51.947 0 0 0 0 3.986v4.232c0 .246 0 .246.251.246h2.87c.403 0 .353.05.353-.344v-6.94c0-.491.05-.983.201-1.475.202-.64.604-1.083 1.309-1.23.252-.05.504-.05.756-.05.805.05 1.309.492 1.51 1.23.151.492.201.935.201 1.427v6.989c0 .393-.05.344.353.344h2.92c.302 0 .302.05.302-.295v-.099c.051-2.017.051-4.183.051-6.299ZM78.946 12.55c-.403-.296-.806-.542-1.209-.788-.503-.246-1.057-.492-1.56-.738l-.907-.443a1.568 1.568 0 0 1-.554-.443c-.251-.345-.15-.787.202-.984.252-.148.503-.197.755-.148.252.05.453.148.655.246.503.295 1.057.541 1.56.788.554.246 1.159.344 1.763.196.554-.147.503-.049.403-.59v-.099c-.353-1.476-1.159-2.51-2.619-3.05-1.208-.444-2.467-.542-3.726-.198-1.258.296-2.165 1.034-2.568 2.264-.2.59-.2 1.23-.1 1.87.1.788.503 1.329 1.158 1.821.201.148.453.295.705.394.654.295 1.309.64 1.964.935.453.197.855.443 1.258.738.353.246.453.59.353.984-.101.443-.353.739-.806.837-.604.148-1.158.05-1.611-.295-.252-.148-.453-.345-.705-.443-.856-.542-2.115-.345-2.82.393-.201.197-.251.394-.15.64.251.541.553.985 1.006 1.378 1.158.935 2.468 1.476 3.978 1.476 1.108 0 2.115-.295 3.071-.738.605-.295 1.058-.738 1.41-1.328a3.77 3.77 0 0 0 .453-2.313c-.15-1.034-.554-1.821-1.36-2.363ZM86.297 7.53V6.3c0-.197 0-.247-.251-.247h-3.072c-.251 0-.251 0-.251.246V18.8c0 .295 0 .295.302.295h2.87c.403 0 .352.049.352-.394.05-3.74.05-7.431.05-11.171ZM84.485 0c-1.259.05-2.216.984-2.216 2.165 0 1.23 1.007 2.166 2.216 2.166 1.259 0 2.266-.984 2.266-2.166C86.8.985 85.744-.049 84.485 0ZM101.756 15.748V13.041c0-.443-.05-.836-.05-1.28a2.84 2.84 0 0 0-.101-.639c-.302-1.87-1.208-3.297-2.669-4.232-.503-.295-1.007-.59-1.61-.788-.303-.098-.605-.196-.907-.246-.906-.197-1.863-.147-2.82 0-.604.099-1.158.246-1.661.492-.151.099-.353.148-.504.247a5.914 5.914 0 0 0-1.661 1.476c-1.007 1.329-1.46 2.756-1.46 4.281 0 .492.05 1.034.15 1.526.101.64.303 1.23.554 1.772.403.787.907 1.476 1.612 2.017.704.542 1.51.935 2.517 1.23.302.1.655.148.957.198.252.049.503.049.805.049 1.46 0 2.72-.542 3.374-1.329v.886c0 .147 0 .295-.05.443-.101.59-.353 1.082-.705 1.476a5.297 5.297 0 0 1-.605.492 3.94 3.94 0 0 1-.805.345l-.604.147c-.403.099-.806.099-1.209.099-.201 0-.403 0-.604-.05-.403-.049-.856-.098-1.259-.147-.403-.05-.805-.148-1.258-.197h-.152c-.05 0-.05.05-.1.148-.101.295-.151.59-.252.935-.1.443-.252.836-.353 1.28-.05.147-.1.344-.15.491v.099c0 .098.05.148.15.148.05 0 .05 0 .101.049.806.246 1.561.443 2.367.541 1.309.148 2.668.148 3.977-.148 1.007-.197 1.964-.541 2.82-1.18.352-.296.655-.591.906-.887.806-.935 1.209-2.116 1.309-3.395v-.05c-.05-1.23-.1-2.41-.05-3.592Zm-6.697.05c-.352 0-.654-.05-.956-.1-1.007-.245-1.762-.885-2.065-1.918a5.875 5.875 0 0 1-.201-1.575c0-.197.05-.345.05-.542.05-.196.05-.393.151-.54.353-1.133 1.31-1.92 2.468-2.019H95.21c.202 0 .403.05.605.099h.05c.201.049.353.147.554.197 0 0 .05 0 .05.049l.453.295.05.05c.152.098.303.245.404.393 0 0 0 .05.05.05.1.147.252.294.302.491v.05c.1.196.151.344.252.54.05.198.1.395.15.64v.296c0 .787 0 1.526.051 2.313-.654.738-1.813 1.23-3.122 1.23Z"/>
  </symbol>
  <symbol id="not-colored" viewBox="0 0 68 17">
    <path d="M13.602 8.05c0-.936.554-1.675 1.293-1.675.702 0 1.257.74 1.257 1.675 0 .937-.555 1.725-1.294 1.725-.702 0-1.256-.74-1.256-1.725ZM31.187 5.266c-.455-1.708-1.515-2.897-3.142-3.566-.72-.297-1.477-.371-2.234-.409-1.173-.037-2.309 0-3.482 0-.227 0-.227 0-.227.223v10.737c0 .037.037.074.075.074h2.536c.758 0 1.666 0 1.969-.037.757-.112 1.476-.297 2.158-.706 1.665-1.04 2.498-2.526 2.612-4.458 0-.632-.114-1.263-.265-1.858ZM28.31 8.833c-.492.706-1.212 1.114-2.082 1.226-.228.037-1.098.037-1.742.037V3.632c0-.149 0-.149.152-.149.227 0 .492.037.719.037.379 0 .72.038 1.06.112 1.552.334 2.423 1.523 2.536 2.86.114.855-.151 1.635-.643 2.34ZM7.325 12.325l-1.82-.056c-.689 0-1.255-.334-1.255-.808 0-.474.566-.836 1.214-.836h1.82c.688 0 1.214.39 1.214.836.04.502-.486.864-1.173.864Z"/>
    <path d="M5.831 10.063c-.19 0-.379 0-.568-.037-1.706-.297-2.73-1.595-2.806-2.967-.076-.927.19-1.742.796-2.41a3.333 3.333 0 0 1 2.275-1.112c.38-.037.796 0 1.175-.074.683-.112 1.176-.408 1.44-1.039.153-.333.228-.667.342-1.038.038-.074 0-.111-.076-.111H5.718c-.607.037-1.214.111-1.82.297-1.403.445-2.502 1.297-3.185 2.595A5.408 5.408 0 0 0 .07 6.17c-.114.519-.076 1.075.038 1.594.265 1.26.834 2.299 1.82 3.152 1.06.89 2.312 1.335 3.715 1.372.568.037 1.1.037 1.668.037l.493-2.114c-.038-.037-1.365-.148-1.972-.148ZM19.44 12.09V4.783c0-.432-.038-.864-.148-1.296C19 2.232 18.34 1.328 17.24.778a3.388 3.388 0 0 0-1.503-.353H13.939c-.513 0-1.063.118-1.54.354-1.1.55-1.76 1.453-2.053 2.71-.11.431-.147.863-.147 1.295V12.168c0 .079.037.118.11.118H12.51c.074 0 .074-.04.074-.079V4.352c0-.942.696-1.688 1.576-1.688h1.43c.403 0 .77.157 1.027.432l.037.039c.036.04.073.079.073.118l.073.078c.22.275.33.629.33 1.021v7.855c0 .079.037.118.11.118H19.44c.074 0 .11-.04.11-.118-.11-.078-.11-.078-.11-.118ZM60.189 10.843c0 .747.04 1.494-.04 2.24-.082 1.062-.529 1.966-1.382 2.634-.528.394-1.138.59-1.747.708-1.341.275-2.682.157-3.982-.236h-.04c-.122-.04-.122-.078-.082-.157.122-.354.203-.747.325-1.1.041-.197.122-.394.163-.551.04-.079.081-.118.162-.079.529.079 1.057.197 1.585.236.528.04 1.016 0 1.503-.157.731-.236 1.178-.668 1.341-1.415 0-.079.04-.197.04-.275a65.69 65.69 0 0 0 0-4.01c-.04-1.219-1.015-2.083-2.274-1.966-.732.04-1.342.55-1.544 1.258-.163.55-.163 1.101 0 1.651.243.747.853 1.219 1.706 1.258.203 0 .406.04.568.079.57.157.854.511.935 1.061.041.275-.04.433-.325.59-.731.393-1.462.472-2.234.236-1.626-.472-2.641-1.494-2.926-3.106-.244-1.297 0-2.555.853-3.616.61-.786 1.423-1.219 2.398-1.376.812-.118 1.584-.118 2.356.157 1.544.511 2.438 1.573 2.682 3.106.08.51.08 1.061.122 1.572-.163.393-.163.826-.163 1.258ZM34.953 10.138c0 .079.08.118.12.197.686.708 1.533.944 2.501.63.121-.04.282-.08.404-.119.766-.236 1.653 0 2.177.59.121.158.121.118 0 .276-.766.826-1.694 1.259-2.823 1.416-1.17.158-2.258-.079-3.186-.747-1.09-.748-1.654-1.771-1.815-3.03-.161-1.456.323-2.715 1.492-3.66 1.331-1.1 2.824-1.258 4.437-.707.363.118.726.314 1.049.55.766.551 1.17 1.26 1.37 2.125.081.315.122.63.122.984 0 .196 0 .196-.202.236-1.855.433-3.75.826-5.606 1.259 0-.04-.04-.04-.04 0Zm-.404-1.26c.04.04.08 0 .08 0 .525-.117 1.09-.235 1.614-.393.726-.157 1.492-.354 2.218-.511.081 0 .122-.04.081-.118-.202-.59-.605-1.023-1.29-1.18-.444-.08-.888-.08-1.291.039-.766.236-1.21.787-1.412 1.495 0 .275-.04.472 0 .669ZM61.239 9.724c-.04-.758 0-1.515 0-2.273.04-1.407 1.106-2.454 2.57-2.706.87-.145 1.7-.072 2.45.288 1.028.47 1.582 1.263 1.7 2.31.04.36.04.721.04 1.082v3.753c0 .18 0 .144-.158.144h-1.78c-.236 0-.236.036-.236-.216v-3.97c0-.288-.04-.54-.119-.83-.118-.432-.474-.685-.949-.721-.158 0-.316 0-.474.036-.435.072-.672.325-.79.686a3.013 3.013 0 0 0-.12.83v3.969c0 .216.04.18-.236.216h-1.78c-.158 0-.158 0-.158-.144.04-.83.04-1.66.04-2.454ZM44.678 12.32c-.893 0-1.708-.33-2.368-.845a2.2 2.2 0 0 1-.621-.808c-.078-.147-.039-.257.077-.367.427-.44 1.165-.514 1.708-.22.156.073.272.183.427.257.31.183.621.257.97.183.273-.073.428-.22.466-.477.078-.22 0-.404-.232-.551a2.983 2.983 0 0 0-.738-.441c-.388-.184-.776-.367-1.203-.551-.155-.073-.272-.147-.427-.22-.388-.258-.621-.588-.699-1.066-.039-.367-.039-.734.078-1.102.233-.734.776-1.138 1.553-1.322a3.929 3.929 0 0 1 2.25.11c.894.294 1.36.918 1.553 1.763V6.7c.04.33.078.294-.271.367a1.73 1.73 0 0 1-1.048-.11c-.31-.147-.621-.294-.932-.477a1.201 1.201 0 0 0-.388-.147c-.155-.037-.31 0-.466.073-.233.147-.272.367-.116.588.077.11.194.184.31.257.194.11.35.184.544.257l.931.441c.272.11.505.294.738.44.466.331.737.772.815 1.323.039.478-.039.919-.272 1.36a1.89 1.89 0 0 1-.854.77 2.956 2.956 0 0 1-1.785.478ZM48.453 8.518V4.823c0-.148 0-.148.185-.148H50.812c.185 0 .185 0 .185.148v7.279c0 .258.046.221-.278.221h-2.081c-.231 0-.185 0-.185-.148V8.518ZM48.45 2.1c0-.936.553-1.675 1.255-1.675.702 0 1.33.74 1.293 1.675 0 .937-.591 1.725-1.293 1.725-.665-.05-1.256-.788-1.256-1.725Z"/>
    <path d="M60.352 9.569c0-.549 0-1.058-.122-1.567-.285-1.528-1.181-2.586-2.688-3.096-.773-.274-1.547-.274-2.36-.156-.978.156-1.792.587-2.403 1.371-.855 1.097-1.058 2.312-.855 3.605.285 1.606 1.303 2.664 2.931 3.095l.611.117c.163.04.326.04.489.04.895 0 1.71-.353 2.117-.823v.548c0 .079 0 .196-.04.275-.123.744-.611 1.175-1.344 1.41-.489.157-.977.196-1.507.157-.529-.04-1.058-.157-1.587-.235-.082 0-.123 0-.163.078-.041.196-.122.392-.163.549-.122.352-.204.744-.326 1.097-.04.117 0 .157.082.157h.04c1.303.391 2.647.509 3.99.235.651-.118 1.262-.314 1.75-.706.896-.666 1.303-1.567 1.385-2.625.04-.744.04-1.489.04-2.233.123-.431.123-.862.123-1.293ZM56.158 10.9c-1.262 0-2.28-.705-2.28-1.528 0-.235.082-.47.245-.705 0-.235.04-.431.122-.666.244-.706.855-1.215 1.547-1.254 1.18-.078 2.158.666 2.28 1.802.203.235.366.51.366.823-.04.823-1.058 1.528-2.28 1.528Z"/>
    </symbol>
</svg>