<svg xmlns="http://www.w3.org/2000/svg">
  <symbol id="vk" viewBox="0 0 21 12">
    <path fill="#E9862A" d="M18.21 7.361c.663.575 1.366 1.114 1.961 1.745.262.278.512.57.703.895.27.462.027.972-.442 1L17.514 11c-.752.055-1.352-.213-1.858-.668-.403-.364-.778-.75-1.166-1.127a2.698 2.698 0 0 0-.524-.412c-.398-.228-.744-.159-.972.21-.232.373-.284.785-.307 1.203-.032.607-.239.767-.929.794-1.473.063-2.873-.135-4.172-.793-1.146-.58-2.035-1.4-2.809-2.327C3.271 6.077 2.12 4.094 1.081 2.055c-.233-.459-.061-.708.51-.715a86.102 86.102 0 0 1 2.856 0c.388.002.643.199.793.523a15.172 15.172 0 0 0 1.934 3.171c.21.264.426.527.732.712.337.205.595.136.754-.196.102-.212.146-.44.169-.666.075-.78.085-1.557-.047-2.332-.082-.484-.39-.798-.937-.89-.278-.045-.236-.139-.101-.28.234-.241.454-.393.894-.393h3.296c.518.09.634.296.705.759l.003 3.238c-.006.18.101.71.465.829.292.084.484-.123.658-.285.788-.742 1.35-1.617 1.855-2.524.224-.399.416-.812.601-1.227.139-.305.356-.457.745-.451l3.174.002c.093 0 .189.002.28.016.535.079.68.283.515.745-.259.726-.765 1.33-1.26 1.935-.53.647-1.095 1.273-1.62 1.925-.481.594-.444.894.156 1.41Z"/>
  </symbol>
  <symbol id="facebook" viewBox="0 0 9 17">
    <path fill="#E9862A" d="M8.661.128 6.501.125c-2.428 0-3.996 1.619-3.996 4.121v1.902H.333a.342.342 0 0 0-.34.343v2.754c0 .187.152.34.34.34h2.172v6.951c0 .19.152.339.34.339h2.834c.188 0 .34-.149.34-.339v-6.95H8.56c.186 0 .34-.154.34-.341V6.49a.34.34 0 0 0-.34-.343H6.02v-1.61c0-.775.184-1.167 1.187-1.167H8.66c.188 0 .34-.154.34-.342V.469a.34.34 0 0 0-.34-.341Z"/>
  </symbol>
  <symbol id="instagram" viewBox="0 0 16 17">
    <path fill="#E9862A" fill-rule="evenodd" d="M15.89 4.107c-.195-1.593-1.057-2.605-2.565-2.93-.625-.134-1.28-.172-1.923-.18C9.472.976 7.544.984 5.616.996c-.497.002-.995.04-1.488.098-.995.118-1.846.513-2.43 1.37-.437.641-.598 1.375-.625 2.136-.046 1.294-.06 2.59-.089 3.885h.03c0 .797-.013 1.595.004 2.39.015.674.031 1.35.108 2.018.184 1.594 1.053 2.604 2.562 2.93.626.135 1.28.173 1.923.18 1.92.023 3.84.015 5.761.003a12.902 12.902 0 0 0 1.515-.099c1.587-.193 2.594-1.059 2.918-2.573.135-.627.173-1.284.18-1.928.023-1.927.015-3.853.004-5.78a13.883 13.883 0 0 0-.1-1.518ZM8.502 13.22c-2.578-.002-4.7-2.131-4.702-4.718C3.8 5.917 5.918 3.786 8.497 3.78c2.578-.006 4.705 2.117 4.714 4.704.01 2.596-2.12 4.74-4.708 4.737ZM13.4 4.703c-.591.005-1.104-.501-1.109-1.098A1.104 1.104 0 0 1 13.385 2.5a1.091 1.091 0 0 1 1.101 1.091A1.105 1.105 0 0 1 13.4 4.703Zm-4.86.742A3.04 3.04 0 0 0 5.46 8.46a3.04 3.04 0 0 0 3 3.095 3.04 3.04 0 0 0 3.092-3.029A3.04 3.04 0 0 0 8.54 5.445Z" clip-rule="evenodd"/>
  </symbol>
  <symbol id="ok" viewBox="0 0 11 18">
    <path fill="#E9862A" d="M4.598 12.796c-1.42-.142-2.7-.478-3.797-1.302-.136-.102-.276-.201-.4-.315-.48-.443-.528-.95-.149-1.473.325-.447.87-.567 1.437-.31.11.05.214.112.315.179 2.043 1.348 4.85 1.386 6.9.06a1.9 1.9 0 0 1 .672-.334c.49-.12.946.052 1.209.464.3.47.296.928-.074 1.293-.567.56-1.249.964-2.007 1.246-.716.267-1.501.402-2.278.49.117.123.173.184.246.254 1.055 1.019 2.114 2.033 3.166 3.054.358.348.433.78.235 1.184-.215.443-.698.734-1.171.703-.3-.02-.534-.164-.742-.365-.796-.77-1.607-1.525-2.387-2.309-.227-.228-.336-.185-.536.013-.801.792-1.615 1.572-2.434 2.348-.367.348-.805.41-1.231.212-.453-.211-.742-.656-.72-1.103.016-.302.17-.532.386-.74 1.044-1 2.085-2.005 3.127-3.008.069-.067.133-.138.233-.24Z"/>
    <path fill="#E9862A" d="M5.464 9.308C2.93 9.3.852 7.282.867 4.844.882 2.38 2.961.394 5.52.4c2.564.007 4.621 2.021 4.609 4.512-.013 2.433-2.105 4.405-4.664 4.396ZM7.766 4.85c-.004-1.21-1.008-2.174-2.265-2.175-1.268-.001-2.28.98-2.271 2.201.01 1.206 1.022 2.163 2.282 2.159C6.77 7.03 7.77 6.06 7.766 4.85Z"/>
  </symbol>
</svg>