<svg xmlns="http://www.w3.org/2000/svg">
  <symbol id="bin" viewBox="0 0 10 11">
    <path fill="#E9862A" d="M9.841 2.823H.161c-.088 0-.161.058-.161.129v.706c0 .07.073.128.162.128h.85l.664 6.213c.05.473.55.835 1.147.835h4.482c.606 0 1.108-.371 1.15-.85l.532-6.198h.851c.09 0 .162-.058.162-.128v-.706c0-.073-.073-.129-.159-.129ZM9.841 1.318H6.689l.003-.036V.896C6.692.402 6.184 0 5.559 0H4.444C3.819 0 3.31.402 3.31.896v.386l.003.036H.162c-.09 0-.162.057-.162.128v.706c0 .07.073.128.162.128h9.676c.09 0 .162-.057.162-.128v-.706c0-.073-.073-.128-.159-.128ZM4.273.896c0-.075.078-.137.173-.137H5.56c.095 0 .173.062.173.137v.386c0 .014-.005.025-.008.036h-1.44c-.002-.011-.008-.022-.008-.036V.896h-.003Z"/>
  </symbol>
  <symbol id="menu" viewBox="0 0 28 18">
    <mask id="a" fill="#fff">
      <path fill-rule="evenodd" d="M0 0h28v2H0V0Zm0 8h28v2H0V8Zm28 8H0v2h28v-2Z" clip-rule="evenodd"/>
    </mask>
    <path fill="#003264" fill-rule="evenodd" d="M0 0h28v2H0V0Zm0 8h28v2H0V8Zm28 8H0v2h28v-2Z" clip-rule="evenodd"/>
    <path fill="#003264" d="M28 0h1v-1h-1v1ZM0 0v-1h-1v1h1Zm28 2v1h1V2h-1ZM0 2h-1v1h1V2Zm28 6h1V7h-1v1ZM0 8V7h-1v1h1Zm28 2v1h1v-1h-1ZM0 10h-1v1h1v-1Zm0 6v-1h-1v1h1Zm28 0h1v-1h-1v1ZM0 18h-1v1h1v-1Zm28 0v1h1v-1h-1Zm0-19H0v2h28v-2Zm1 3V0h-2v2h2ZM0 3h28V1H0v2Zm-1-3v2h2V0h-2Zm29 7H0v2h28V7Zm1 3V8h-2v2h2ZM0 11h28V9H0v2Zm-1-3v2h2V8h-2Zm1 9h28v-2H0v2Zm1 1v-2h-2v2h2Zm27-1H0v2h28v-2Zm-1-1v2h2v-2h-2Z" mask="url(#a)"/>
  </symbol>
  <symbol id="calendar" viewBox="0 0 17 16">
    <path fill="#4F4F4F" fill-rule="evenodd" d="M13 1H4V0H2v1H0v15h17V1h-2V0h-2v1ZM2 3h13v3H2V3Zm0 4v7h13V7H2Z" clip-rule="evenodd"/>
  </symbol>
  <symbol id="close" viewBox="0 0 12 12">
    <path fill="#fff" stroke="#fff" d="M11.293 1.043 6.69 5.646 6.336 6l.354.354 4.603 4.603-.336.336L6.354 6.69 6 6.336l-.354.354-4.603 4.603-.336-.336L5.31 6.354 5.664 6l-.354-.354L.707 1.043l.336-.336L5.646 5.31 6 5.664l.354-.354L10.957.707l.336.336Z"/>
  </symbol>
  <symbol id="dot" viewBox="0 0 6 6">
    <circle cx="3" cy="3" r="3"/>
  </symbol>
  <symbol id="dropdown" viewBox="0 0 5 4">
    <path fill="#242627" d="M2.5 4 .335.25h4.33L2.5 4Z"/>
  </symbol>
</svg>